<?xml version="1.0" encoding="utf-8" standalone="no"?>
<!DOCTYPE svg PUBLIC "-//W3C//DTD SVG 1.1//EN"
  "http://www.w3.org/Graphics/SVG/1.1/DTD/svg11.dtd">
<svg xmlns:xlink="http://www.w3.org/1999/xlink" width="271.818137pt" height="281.99952pt" viewBox="0 0 271.818137 281.99952" xmlns="http://www.w3.org/2000/svg" version="1.1">
 <metadata>
  <rdf:RDF xmlns:dc="http://purl.org/dc/elements/1.1/" xmlns:cc="http://creativecommons.org/ns#" xmlns:rdf="http://www.w3.org/1999/02/22-rdf-syntax-ns#">
   <cc:Work>
    <dc:type rdf:resource="http://purl.org/dc/dcmitype/StillImage"/>
    <dc:date>2026-07-26T03:01:15.024894</dc:date>
    <dc:format>image/svg+xml</dc:format>
    <dc:creator>
     <cc:Agent>
      <dc:title>Matplotlib v3.10.9, https://matplotlib.org/</dc:title>
     </cc:Agent>
    </dc:creator>
   </cc:Work>
  </rdf:RDF>
 </metadata>
 <defs>
  <style type="text/css">*{stroke-linejoin: round; stroke-linecap: butt}</style>
 </defs>
 <g id="figure_1">
  <g id="patch_1">
   <path d="M 0 281.99952 
L 271.818137 281.99952 
L 271.818137 0 
L 0 0 
z
" style="fill: #ffffff"/>
  </g>
  <g id="axes_1">
   <g id="patch_2">
    <path d="M 18.020674 167.731799 
C 19.984137 167.731799 21.867445 165.811573 23.255823 162.394027 
C 24.644201 158.976482 25.424293 154.340645 25.424293 149.507506 
C 25.424293 144.674367 24.644201 140.03853 23.255823 136.620985 
C 21.867445 133.20344 19.984137 131.283213 18.020674 131.283213 
C 16.057211 131.283213 14.173903 133.20344 12.785525 136.620985 
C 11.397147 140.03853 10.617055 144.674367 10.617055 149.507506 
C 10.617055 154.340645 11.397147 158.976482 12.785525 162.394027 
C 14.173903 165.811573 16.057211 167.731799 18.020674 167.731799 
L 18.020674 167.731799 
z
" clip-path="url(#p7c3fca55d7)" style="fill: none; stroke: #59616d; stroke-width: 0.8; stroke-linejoin: miter"/>
   </g>
   <g id="patch_3">
    <path d="M 253.797464 167.731799 
C 255.760926 167.731799 257.644235 165.811573 259.032613 162.394027 
C 260.42099 158.976482 261.201082 154.340645 261.201082 149.507506 
C 261.201082 144.674367 260.42099 140.03853 259.032613 136.620985 
C 257.644235 133.20344 255.760926 131.283213 253.797464 131.283213 
C 251.834001 131.283213 249.950692 133.20344 248.562314 136.620985 
C 247.173937 140.03853 246.393845 144.674367 246.393845 149.507506 
C 246.393845 154.340645 247.173937 158.976482 248.562314 162.394027 
C 249.950692 165.811573 251.834001 167.731799 253.797464 167.731799 
L 253.797464 167.731799 
z
" clip-path="url(#p7c3fca55d7)" style="fill: none; stroke: #59616d; stroke-width: 0.8; stroke-linejoin: miter"/>
   </g>
   <g id="patch_4">
    <path d="M 135.909069 27.632547 
L 128.50545 39.02273 
L 143.312688 39.02273 
L 135.909069 27.632547 
z
" clip-path="url(#p7c3fca55d7)" style="fill: none; stroke: #343a43; stroke-linejoin: miter"/>
   </g>
   <g id="line2d_1">
    <path d="M 170.511457 244.381566 
L 176.991361 249.7908 
" clip-path="url(#p7c3fca55d7)" style="fill: none; stroke: #7e03a8; stroke-opacity: 0.32; stroke-width: 0.5; stroke-linecap: square"/>
   </g>
   <g id="line2d_2">
    <path d="M 182.77699 243.06169 
L 163.983574 255.018562 
" clip-path="url(#p7c3fca55d7)" style="fill: none; stroke: #7e03a8; stroke-opacity: 0.32118; stroke-width: 0.504475; stroke-linecap: square"/>
   </g>
   <g id="text_1">
    <!-- Top-24 effective off-diagonal edges -->
    <g transform="translate(36.02235 14.798437) scale(0.1 -0.1)">
     <defs>
      <path id="DejaVuSans-Bold-54" d="M 31 4666 
L 4331 4666 
L 4331 3756 
L 2784 3756 
L 2784 0 
L 1581 0 
L 1581 3756 
L 31 3756 
L 31 4666 
z
" transform="scale(0.015625)"/>
      <path id="DejaVuSans-Bold-6f" d="M 2203 2784 
Q 1831 2784 1636 2517 
Q 1441 2250 1441 1747 
Q 1441 1244 1636 976 
Q 1831 709 2203 709 
Q 2569 709 2762 976 
Q 2956 1244 2956 1747 
Q 2956 2250 2762 2517 
Q 2569 2784 2203 2784 
z
M 2203 3584 
Q 3106 3584 3614 3096 
Q 4122 2609 4122 1747 
Q 4122 884 3614 396 
Q 3106 -91 2203 -91 
Q 1297 -91 786 396 
Q 275 884 275 1747 
Q 275 2609 786 3096 
Q 1297 3584 2203 3584 
z
" transform="scale(0.015625)"/>
      <path id="DejaVuSans-Bold-70" d="M 1656 506 
L 1656 -1331 
L 538 -1331 
L 538 3500 
L 1656 3500 
L 1656 2988 
Q 1888 3294 2169 3439 
Q 2450 3584 2816 3584 
Q 3463 3584 3878 3070 
Q 4294 2556 4294 1747 
Q 4294 938 3878 423 
Q 3463 -91 2816 -91 
Q 2450 -91 2169 54 
Q 1888 200 1656 506 
z
M 2400 2772 
Q 2041 2772 1848 2508 
Q 1656 2244 1656 1747 
Q 1656 1250 1848 986 
Q 2041 722 2400 722 
Q 2759 722 2948 984 
Q 3138 1247 3138 1747 
Q 3138 2247 2948 2509 
Q 2759 2772 2400 2772 
z
" transform="scale(0.015625)"/>
      <path id="DejaVuSans-Bold-2d" d="M 347 2297 
L 2309 2297 
L 2309 1388 
L 347 1388 
L 347 2297 
z
" transform="scale(0.015625)"/>
      <path id="DejaVuSans-Bold-32" d="M 1844 884 
L 3897 884 
L 3897 0 
L 506 0 
L 506 884 
L 2209 2388 
Q 2438 2594 2547 2791 
Q 2656 2988 2656 3200 
Q 2656 3528 2436 3728 
Q 2216 3928 1850 3928 
Q 1569 3928 1234 3808 
Q 900 3688 519 3450 
L 519 4475 
Q 925 4609 1322 4679 
Q 1719 4750 2100 4750 
Q 2938 4750 3402 4381 
Q 3866 4013 3866 3353 
Q 3866 2972 3669 2642 
Q 3472 2313 2841 1759 
L 1844 884 
z
" transform="scale(0.015625)"/>
      <path id="DejaVuSans-Bold-34" d="M 2356 3675 
L 1038 1722 
L 2356 1722 
L 2356 3675 
z
M 2156 4666 
L 3494 4666 
L 3494 1722 
L 4159 1722 
L 4159 850 
L 3494 850 
L 3494 0 
L 2356 0 
L 2356 850 
L 288 850 
L 288 1881 
L 2156 4666 
z
" transform="scale(0.015625)"/>
      <path id="DejaVuSans-Bold-20" transform="scale(0.015625)"/>
      <path id="DejaVuSans-Bold-65" d="M 4031 1759 
L 4031 1441 
L 1416 1441 
Q 1456 1047 1700 850 
Q 1944 653 2381 653 
Q 2734 653 3104 758 
Q 3475 863 3866 1075 
L 3866 213 
Q 3469 63 3072 -14 
Q 2675 -91 2278 -91 
Q 1328 -91 801 392 
Q 275 875 275 1747 
Q 275 2603 792 3093 
Q 1309 3584 2216 3584 
Q 3041 3584 3536 3087 
Q 4031 2591 4031 1759 
z
M 2881 2131 
Q 2881 2450 2695 2645 
Q 2509 2841 2209 2841 
Q 1884 2841 1681 2658 
Q 1478 2475 1428 2131 
L 2881 2131 
z
" transform="scale(0.015625)"/>
      <path id="DejaVuSans-Bold-66" d="M 2841 4863 
L 2841 4128 
L 2222 4128 
Q 1984 4128 1890 4042 
Q 1797 3956 1797 3744 
L 1797 3500 
L 2753 3500 
L 2753 2700 
L 1797 2700 
L 1797 0 
L 678 0 
L 678 2700 
L 122 2700 
L 122 3500 
L 678 3500 
L 678 3744 
Q 678 4316 997 4589 
Q 1316 4863 1984 4863 
L 2841 4863 
z
" transform="scale(0.015625)"/>
      <path id="DejaVuSans-Bold-63" d="M 3366 3391 
L 3366 2478 
Q 3138 2634 2908 2709 
Q 2678 2784 2431 2784 
Q 1963 2784 1702 2511 
Q 1441 2238 1441 1747 
Q 1441 1256 1702 982 
Q 1963 709 2431 709 
Q 2694 709 2930 787 
Q 3166 866 3366 1019 
L 3366 103 
Q 3103 6 2833 -42 
Q 2563 -91 2291 -91 
Q 1344 -91 809 395 
Q 275 881 275 1747 
Q 275 2613 809 3098 
Q 1344 3584 2291 3584 
Q 2566 3584 2833 3536 
Q 3100 3488 3366 3391 
z
" transform="scale(0.015625)"/>
      <path id="DejaVuSans-Bold-74" d="M 1759 4494 
L 1759 3500 
L 2913 3500 
L 2913 2700 
L 1759 2700 
L 1759 1216 
Q 1759 972 1856 886 
Q 1953 800 2241 800 
L 2816 800 
L 2816 0 
L 1856 0 
Q 1194 0 917 276 
Q 641 553 641 1216 
L 641 2700 
L 84 2700 
L 84 3500 
L 641 3500 
L 641 4494 
L 1759 4494 
z
" transform="scale(0.015625)"/>
      <path id="DejaVuSans-Bold-69" d="M 538 3500 
L 1656 3500 
L 1656 0 
L 538 0 
L 538 3500 
z
M 538 4863 
L 1656 4863 
L 1656 3950 
L 538 3950 
L 538 4863 
z
" transform="scale(0.015625)"/>
      <path id="DejaVuSans-Bold-76" d="M 97 3500 
L 1216 3500 
L 2088 1081 
L 2956 3500 
L 4078 3500 
L 2700 0 
L 1472 0 
L 97 3500 
z
" transform="scale(0.015625)"/>
      <path id="DejaVuSans-Bold-64" d="M 2919 2988 
L 2919 4863 
L 4044 4863 
L 4044 0 
L 2919 0 
L 2919 506 
Q 2688 197 2409 53 
Q 2131 -91 1766 -91 
Q 1119 -91 703 423 
Q 288 938 288 1747 
Q 288 2556 703 3070 
Q 1119 3584 1766 3584 
Q 2128 3584 2408 3439 
Q 2688 3294 2919 2988 
z
M 2181 722 
Q 2541 722 2730 984 
Q 2919 1247 2919 1747 
Q 2919 2247 2730 2509 
Q 2541 2772 2181 2772 
Q 1825 2772 1636 2509 
Q 1447 2247 1447 1747 
Q 1447 1247 1636 984 
Q 1825 722 2181 722 
z
" transform="scale(0.015625)"/>
      <path id="DejaVuSans-Bold-61" d="M 2106 1575 
Q 1756 1575 1579 1456 
Q 1403 1338 1403 1106 
Q 1403 894 1545 773 
Q 1688 653 1941 653 
Q 2256 653 2472 879 
Q 2688 1106 2688 1447 
L 2688 1575 
L 2106 1575 
z
M 3816 1997 
L 3816 0 
L 2688 0 
L 2688 519 
Q 2463 200 2181 54 
Q 1900 -91 1497 -91 
Q 953 -91 614 226 
Q 275 544 275 1050 
Q 275 1666 698 1953 
Q 1122 2241 2028 2241 
L 2688 2241 
L 2688 2328 
Q 2688 2594 2478 2717 
Q 2269 2841 1825 2841 
Q 1466 2841 1156 2769 
Q 847 2697 581 2553 
L 581 3406 
Q 941 3494 1303 3539 
Q 1666 3584 2028 3584 
Q 2975 3584 3395 3211 
Q 3816 2838 3816 1997 
z
" transform="scale(0.015625)"/>
      <path id="DejaVuSans-Bold-67" d="M 2919 594 
Q 2688 288 2409 144 
Q 2131 0 1766 0 
Q 1125 0 706 504 
Q 288 1009 288 1791 
Q 288 2575 706 3076 
Q 1125 3578 1766 3578 
Q 2131 3578 2409 3434 
Q 2688 3291 2919 2981 
L 2919 3500 
L 4044 3500 
L 4044 353 
Q 4044 -491 3511 -936 
Q 2978 -1381 1966 -1381 
Q 1638 -1381 1331 -1331 
Q 1025 -1281 716 -1178 
L 716 -306 
Q 1009 -475 1290 -558 
Q 1572 -641 1856 -641 
Q 2406 -641 2662 -400 
Q 2919 -159 2919 353 
L 2919 594 
z
M 2181 2772 
Q 1834 2772 1640 2515 
Q 1447 2259 1447 1791 
Q 1447 1309 1634 1061 
Q 1822 813 2181 813 
Q 2531 813 2725 1069 
Q 2919 1325 2919 1791 
Q 2919 2259 2725 2515 
Q 2531 2772 2181 2772 
z
" transform="scale(0.015625)"/>
      <path id="DejaVuSans-Bold-6e" d="M 4056 2131 
L 4056 0 
L 2931 0 
L 2931 347 
L 2931 1631 
Q 2931 2084 2911 2256 
Q 2891 2428 2841 2509 
Q 2775 2619 2662 2680 
Q 2550 2741 2406 2741 
Q 2056 2741 1856 2470 
Q 1656 2200 1656 1722 
L 1656 0 
L 538 0 
L 538 3500 
L 1656 3500 
L 1656 2988 
Q 1909 3294 2193 3439 
Q 2478 3584 2822 3584 
Q 3428 3584 3742 3212 
Q 4056 2841 4056 2131 
z
" transform="scale(0.015625)"/>
      <path id="DejaVuSans-Bold-6c" d="M 538 4863 
L 1656 4863 
L 1656 0 
L 538 0 
L 538 4863 
z
" transform="scale(0.015625)"/>
      <path id="DejaVuSans-Bold-73" d="M 3272 3391 
L 3272 2541 
Q 2913 2691 2578 2766 
Q 2244 2841 1947 2841 
Q 1628 2841 1473 2761 
Q 1319 2681 1319 2516 
Q 1319 2381 1436 2309 
Q 1553 2238 1856 2203 
L 2053 2175 
Q 2913 2066 3209 1816 
Q 3506 1566 3506 1031 
Q 3506 472 3093 190 
Q 2681 -91 1863 -91 
Q 1516 -91 1145 -36 
Q 775 19 384 128 
L 384 978 
Q 719 816 1070 734 
Q 1422 653 1784 653 
Q 2113 653 2278 743 
Q 2444 834 2444 1013 
Q 2444 1163 2330 1236 
Q 2216 1309 1875 1350 
L 1678 1375 
Q 931 1469 631 1722 
Q 331 1975 331 2491 
Q 331 3047 712 3315 
Q 1094 3584 1881 3584 
Q 2191 3584 2531 3537 
Q 2872 3491 3272 3391 
z
" transform="scale(0.015625)"/>
     </defs>
     <use xlink:href="#DejaVuSans-Bold-54"/>
     <use xlink:href="#DejaVuSans-Bold-6f" transform="translate(54.962891 0)"/>
     <use xlink:href="#DejaVuSans-Bold-70" transform="translate(123.664062 0)"/>
     <use xlink:href="#DejaVuSans-Bold-2d" transform="translate(195.246094 0)"/>
     <use xlink:href="#DejaVuSans-Bold-32" transform="translate(236.75 0)"/>
     <use xlink:href="#DejaVuSans-Bold-34" transform="translate(306.330078 0)"/>
     <use xlink:href="#DejaVuSans-Bold-20" transform="translate(375.910156 0)"/>
     <use xlink:href="#DejaVuSans-Bold-65" transform="translate(410.724609 0)"/>
     <use xlink:href="#DejaVuSans-Bold-66" transform="translate(478.546875 0)"/>
     <use xlink:href="#DejaVuSans-Bold-66" transform="translate(522.052734 0)"/>
     <use xlink:href="#DejaVuSans-Bold-65" transform="translate(565.558594 0)"/>
     <use xlink:href="#DejaVuSans-Bold-63" transform="translate(633.380859 0)"/>
     <use xlink:href="#DejaVuSans-Bold-74" transform="translate(692.658203 0)"/>
     <use xlink:href="#DejaVuSans-Bold-69" transform="translate(740.460938 0)"/>
     <use xlink:href="#DejaVuSans-Bold-76" transform="translate(774.738281 0)"/>
     <use xlink:href="#DejaVuSans-Bold-65" transform="translate(839.923828 0)"/>
     <use xlink:href="#DejaVuSans-Bold-20" transform="translate(907.746094 0)"/>
     <use xlink:href="#DejaVuSans-Bold-6f" transform="translate(942.560547 0)"/>
     <use xlink:href="#DejaVuSans-Bold-66" transform="translate(1011.261719 0)"/>
     <use xlink:href="#DejaVuSans-Bold-66" transform="translate(1054.767578 0)"/>
     <use xlink:href="#DejaVuSans-Bold-2d" transform="translate(1096.523438 0)"/>
     <use xlink:href="#DejaVuSans-Bold-64" transform="translate(1138.027344 0)"/>
     <use xlink:href="#DejaVuSans-Bold-69" transform="translate(1209.609375 0)"/>
     <use xlink:href="#DejaVuSans-Bold-61" transform="translate(1243.886719 0)"/>
     <use xlink:href="#DejaVuSans-Bold-67" transform="translate(1311.367188 0)"/>
     <use xlink:href="#DejaVuSans-Bold-6f" transform="translate(1382.949219 0)"/>
     <use xlink:href="#DejaVuSans-Bold-6e" transform="translate(1451.650391 0)"/>
     <use xlink:href="#DejaVuSans-Bold-61" transform="translate(1522.841797 0)"/>
     <use xlink:href="#DejaVuSans-Bold-6c" transform="translate(1590.322266 0)"/>
     <use xlink:href="#DejaVuSans-Bold-20" transform="translate(1624.599609 0)"/>
     <use xlink:href="#DejaVuSans-Bold-65" transform="translate(1659.414062 0)"/>
     <use xlink:href="#DejaVuSans-Bold-64" transform="translate(1727.236328 0)"/>
     <use xlink:href="#DejaVuSans-Bold-67" transform="translate(1798.818359 0)"/>
     <use xlink:href="#DejaVuSans-Bold-65" transform="translate(1870.400391 0)"/>
     <use xlink:href="#DejaVuSans-Bold-73" transform="translate(1938.222656 0)"/>
    </g>
   </g>
   <g id="line2d_3">
    <path d="M 56.73429 164.577141 
L 56.104832 192.802543 
" clip-path="url(#p7c3fca55d7)" style="fill: none; stroke: #8405a7; stroke-opacity: 0.33403; stroke-width: 0.553219; stroke-linecap: square"/>
   </g>
   <g id="line2d_4">
    <path d="M 204.62456 107.717674 
L 194.511469 127.190219 
" clip-path="url(#p7c3fca55d7)" style="fill: none; stroke: #8e0ca4; stroke-opacity: 0.358523; stroke-width: 0.646122; stroke-linecap: square"/>
   </g>
   <g id="line2d_5">
    <path d="M 214.420429 161.526844 
L 216.38933 192.354369 
" clip-path="url(#p7c3fca55d7)" style="fill: none; stroke: #8f0da4; stroke-opacity: 0.359955; stroke-width: 0.651552; stroke-linecap: square"/>
   </g>
   <g id="line2d_6">
    <path d="M 204.636413 218.246704 
L 188.277571 241.348579 
" clip-path="url(#p7c3fca55d7)" style="fill: none; stroke: #9410a2; stroke-opacity: 0.36978; stroke-width: 0.688822; stroke-linecap: square"/>
   </g>
   <g id="patch_5">
    <path d="M 135.909069 263.409337 
C 166.116187 263.409337 195.090167 251.407922 216.449826 230.048263 
C 237.809484 208.688605 249.810899 179.714625 249.810899 149.507506 
C 249.810899 119.300388 237.809484 90.326408 216.449826 68.966749 
C 195.090167 47.607091 166.116187 35.605675 135.909069 35.605675 
C 105.70195 35.605675 76.72797 47.607091 55.368312 68.966749 
C 34.008653 90.326408 22.007238 119.300388 22.007238 149.507506 
C 22.007238 179.714625 34.008653 208.688605 55.368312 230.048263 
C 76.72797 251.407922 105.70195 263.409337 135.909069 263.409337 
L 135.909069 263.409337 
z
" clip-path="url(#p7c3fca55d7)" style="fill: none; stroke: #343a43; stroke-width: 1.2; stroke-linejoin: miter"/>
   </g>
   <g id="line2d_7">
    <path d="M 170.511457 244.381566 
L 182.77699 243.06169 
" clip-path="url(#p7c3fca55d7)" style="fill: none; stroke: #9814a0; stroke-opacity: 0.380631; stroke-width: 0.729979; stroke-linecap: square"/>
   </g>
   <g id="line2d_8">
    <path d="M 163.674631 95.318365 
L 136.262886 123.740291 
" clip-path="url(#p7c3fca55d7)" style="fill: none; stroke: #9a169f; stroke-opacity: 0.387031; stroke-width: 0.754255; stroke-linecap: square"/>
   </g>
   <g id="line2d_9">
    <path d="M 76.118404 193.73116 
L 86.04231 223.627339 
" clip-path="url(#p7c3fca55d7)" style="fill: none; stroke: #9d189d; stroke-opacity: 0.394058; stroke-width: 0.780908; stroke-linecap: square"/>
   </g>
   <g id="PathCollection_1">
    <defs>
     <path id="m79b8925bc2" d="M 0 1.732051 
C 0.459345 1.732051 0.899939 1.549551 1.224745 1.224745 
C 1.549551 0.899939 1.732051 0.459345 1.732051 0 
C 1.732051 -0.459345 1.549551 -0.899939 1.224745 -1.224745 
C 0.899939 -1.549551 0.459345 -1.732051 0 -1.732051 
C -0.459345 -1.732051 -0.899939 -1.549551 -1.224745 -1.224745 
C -1.549551 -0.899939 -1.732051 -0.459345 -1.732051 0 
C -1.732051 0.459345 -1.549551 0.899939 -1.224745 1.224745 
C -0.899939 1.549551 -0.459345 1.732051 0 1.732051 
z
" style="stroke: #374151; stroke-width: 0.45"/>
    </defs>
    <g clip-path="url(#p7c3fca55d7)">
     <use xlink:href="#m79b8925bc2" x="108.216415" y="70.562271" style="fill: #f8fafc; stroke: #374151; stroke-width: 0.45"/>
     <use xlink:href="#m79b8925bc2" x="136.014715" y="66.488906" style="fill: #f8fafc; stroke: #374151; stroke-width: 0.45"/>
     <use xlink:href="#m79b8925bc2" x="164.011515" y="69.641462" style="fill: #f8fafc; stroke: #374151; stroke-width: 0.45"/>
     <use xlink:href="#m79b8925bc2" x="104.205045" y="77.2228" style="fill: #f8fafc; stroke: #374151; stroke-width: 0.45"/>
     <use xlink:href="#m79b8925bc2" x="169.50551" y="76.386659" style="fill: #f8fafc; stroke: #374151; stroke-width: 0.45"/>
     <use xlink:href="#m79b8925bc2" x="69.809058" y="109.549695" style="fill: #f8fafc; stroke: #374151; stroke-width: 0.45"/>
     <use xlink:href="#m79b8925bc2" x="75.262696" y="104.31817" style="fill: #f8fafc; stroke: #374151; stroke-width: 0.45"/>
     <use xlink:href="#m79b8925bc2" x="88.64208" y="99.543003" style="fill: #f8fafc; stroke: #374151; stroke-width: 0.45"/>
     <use xlink:href="#m79b8925bc2" x="110.042322" y="95.949422" style="fill: #f8fafc; stroke: #374151; stroke-width: 0.45"/>
     <use xlink:href="#m79b8925bc2" x="136.202772" y="94.462186" style="fill: #f8fafc; stroke: #374151; stroke-width: 0.45"/>
     <use xlink:href="#m79b8925bc2" x="163.674631" y="95.318365" style="fill: #f8fafc; stroke: #374151; stroke-width: 0.45"/>
     <use xlink:href="#m79b8925bc2" x="184.674112" y="98.420121" style="fill: #f8fafc; stroke: #374151; stroke-width: 0.45"/>
     <use xlink:href="#m79b8925bc2" x="199.799533" y="102.630083" style="fill: #f8fafc; stroke: #374151; stroke-width: 0.45"/>
     <use xlink:href="#m79b8925bc2" x="204.62456" y="107.717674" style="fill: #f8fafc; stroke: #374151; stroke-width: 0.45"/>
     <use xlink:href="#m79b8925bc2" x="59.919772" y="136.223796" style="fill: #f8fafc; stroke: #374151; stroke-width: 0.45"/>
     <use xlink:href="#m79b8925bc2" x="63.268946" y="131.968772" style="fill: #f8fafc; stroke: #374151; stroke-width: 0.45"/>
     <use xlink:href="#m79b8925bc2" x="79.292786" y="128.137181" style="fill: #f8fafc; stroke: #374151; stroke-width: 0.45"/>
     <use xlink:href="#m79b8925bc2" x="103.865246" y="125.037495" style="fill: #f8fafc; stroke: #374151; stroke-width: 0.45"/>
     <use xlink:href="#m79b8925bc2" x="136.262886" y="123.740291" style="fill: #f8fafc; stroke: #374151; stroke-width: 0.45"/>
     <use xlink:href="#m79b8925bc2" x="168.632303" y="124.635981" style="fill: #f8fafc; stroke: #374151; stroke-width: 0.45"/>
     <use xlink:href="#m79b8925bc2" x="194.511469" y="127.190219" style="fill: #f8fafc; stroke: #374151; stroke-width: 0.45"/>
     <use xlink:href="#m79b8925bc2" x="210.730985" y="130.752943" style="fill: #f8fafc; stroke: #374151; stroke-width: 0.45"/>
     <use xlink:href="#m79b8925bc2" x="212.876842" y="135.004205" style="fill: #f8fafc; stroke: #374151; stroke-width: 0.45"/>
     <use xlink:href="#m79b8925bc2" x="56.73429" y="164.577141" style="fill: #f8fafc; stroke: #374151; stroke-width: 0.45"/>
     <use xlink:href="#m79b8925bc2" x="60.385351" y="162.451981" style="fill: #f8fafc; stroke: #374151; stroke-width: 0.45"/>
     <use xlink:href="#m79b8925bc2" x="74.423262" y="160.450059" style="fill: #f8fafc; stroke: #374151; stroke-width: 0.45"/>
     <use xlink:href="#m79b8925bc2" x="101.893334" y="158.899887" style="fill: #f8fafc; stroke: #374151; stroke-width: 0.45"/>
     <use xlink:href="#m79b8925bc2" x="136.286216" y="158.131386" style="fill: #f8fafc; stroke: #374151; stroke-width: 0.45"/>
     <use xlink:href="#m79b8925bc2" x="171.349103" y="158.561404" style="fill: #f8fafc; stroke: #374151; stroke-width: 0.45"/>
     <use xlink:href="#m79b8925bc2" x="199.050412" y="159.761992" style="fill: #f8fafc; stroke: #374151; stroke-width: 0.45"/>
     <use xlink:href="#m79b8925bc2" x="214.420429" y="161.526844" style="fill: #f8fafc; stroke: #374151; stroke-width: 0.45"/>
     <use xlink:href="#m79b8925bc2" x="215.948211" y="163.637893" style="fill: #f8fafc; stroke: #374151; stroke-width: 0.45"/>
     <use xlink:href="#m79b8925bc2" x="56.104832" y="192.802543" style="fill: #f8fafc; stroke: #374151; stroke-width: 0.45"/>
     <use xlink:href="#m79b8925bc2" x="61.032494" y="193.300201" style="fill: #f8fafc; stroke: #374151; stroke-width: 0.45"/>
     <use xlink:href="#m79b8925bc2" x="76.118404" y="193.73116" style="fill: #f8fafc; stroke: #374151; stroke-width: 0.45"/>
     <use xlink:href="#m79b8925bc2" x="102.500025" y="193.997487" style="fill: #f8fafc; stroke: #374151; stroke-width: 0.45"/>
     <use xlink:href="#m79b8925bc2" x="136.272011" y="194.022041" style="fill: #f8fafc; stroke: #374151; stroke-width: 0.45"/>
     <use xlink:href="#m79b8925bc2" x="172.018731" y="193.79165" style="fill: #f8fafc; stroke: #374151; stroke-width: 0.45"/>
     <use xlink:href="#m79b8925bc2" x="198.574297" y="193.381576" style="fill: #f8fafc; stroke: #374151; stroke-width: 0.45"/>
     <use xlink:href="#m79b8925bc2" x="214.294274" y="192.877427" style="fill: #f8fafc; stroke: #374151; stroke-width: 0.45"/>
     <use xlink:href="#m79b8925bc2" x="216.38933" y="192.354369" style="fill: #f8fafc; stroke: #374151; stroke-width: 0.45"/>
     <use xlink:href="#m79b8925bc2" x="67.766308" y="218.608329" style="fill: #f8fafc; stroke: #374151; stroke-width: 0.45"/>
     <use xlink:href="#m79b8925bc2" x="72.622473" y="221.278186" style="fill: #f8fafc; stroke: #374151; stroke-width: 0.45"/>
     <use xlink:href="#m79b8925bc2" x="86.04231" y="223.627339" style="fill: #f8fafc; stroke: #374151; stroke-width: 0.45"/>
     <use xlink:href="#m79b8925bc2" x="108.984445" y="225.26152" style="fill: #f8fafc; stroke: #374151; stroke-width: 0.45"/>
     <use xlink:href="#m79b8925bc2" x="136.214531" y="225.816659" style="fill: #f8fafc; stroke: #374151; stroke-width: 0.45"/>
     <use xlink:href="#m79b8925bc2" x="165.937612" y="225.22596" style="fill: #f8fafc; stroke: #374151; stroke-width: 0.45"/>
     <use xlink:href="#m79b8925bc2" x="188.277665" y="223.413224" style="fill: #f8fafc; stroke: #374151; stroke-width: 0.45"/>
     <use xlink:href="#m79b8925bc2" x="199.774603" y="220.914679" style="fill: #f8fafc; stroke: #374151; stroke-width: 0.45"/>
     <use xlink:href="#m79b8925bc2" x="204.636413" y="218.246704" style="fill: #f8fafc; stroke: #374151; stroke-width: 0.45"/>
     <use xlink:href="#m79b8925bc2" x="84.317816" y="241.257138" style="fill: #f8fafc; stroke: #374151; stroke-width: 0.45"/>
     <use xlink:href="#m79b8925bc2" x="90.353685" y="242.962629" style="fill: #f8fafc; stroke: #374151; stroke-width: 0.45"/>
     <use xlink:href="#m79b8925bc2" x="101.560872" y="244.385141" style="fill: #f8fafc; stroke: #374151; stroke-width: 0.45"/>
     <use xlink:href="#m79b8925bc2" x="136.111895" y="245.631732" style="fill: #f8fafc; stroke: #374151; stroke-width: 0.45"/>
     <use xlink:href="#m79b8925bc2" x="170.511457" y="244.381566" style="fill: #f8fafc; stroke: #374151; stroke-width: 0.45"/>
     <use xlink:href="#m79b8925bc2" x="182.77699" y="243.06169" style="fill: #f8fafc; stroke: #374151; stroke-width: 0.45"/>
     <use xlink:href="#m79b8925bc2" x="188.277571" y="241.348579" style="fill: #f8fafc; stroke: #374151; stroke-width: 0.45"/>
     <use xlink:href="#m79b8925bc2" x="95.478906" y="249.69108" style="fill: #f8fafc; stroke: #374151; stroke-width: 0.45"/>
     <use xlink:href="#m79b8925bc2" x="108.238334" y="255.294203" style="fill: #f8fafc; stroke: #374151; stroke-width: 0.45"/>
     <use xlink:href="#m79b8925bc2" x="136.010294" y="257.592461" style="fill: #f8fafc; stroke: #374151; stroke-width: 0.45"/>
     <use xlink:href="#m79b8925bc2" x="163.983574" y="255.018562" style="fill: #f8fafc; stroke: #374151; stroke-width: 0.45"/>
     <use xlink:href="#m79b8925bc2" x="176.991361" y="249.7908" style="fill: #f8fafc; stroke: #374151; stroke-width: 0.45"/>
    </g>
   </g>
   <g id="line2d_10">
    <path d="M 72.622473 221.278186 
L 84.317816 241.257138 
" clip-path="url(#p7c3fca55d7)" style="fill: none; stroke: #9e199d; stroke-opacity: 0.396837; stroke-width: 0.791452; stroke-linecap: square"/>
   </g>
   <g id="text_2">
    <!-- P6 -->
    <g transform="translate(196.366752 222.432335) scale(0.055 -0.055)">
     <defs>
      <path id="DejaVuSans-50" d="M 1259 4147 
L 1259 2394 
L 2053 2394 
Q 2494 2394 2734 2622 
Q 2975 2850 2975 3272 
Q 2975 3691 2734 3919 
Q 2494 4147 2053 4147 
L 1259 4147 
z
M 628 4666 
L 2053 4666 
Q 2838 4666 3239 4311 
Q 3641 3956 3641 3272 
Q 3641 2581 3239 2228 
Q 2838 1875 2053 1875 
L 1259 1875 
L 1259 0 
L 628 0 
L 628 4666 
z
" transform="scale(0.015625)"/>
      <path id="DejaVuSans-36" d="M 2113 2584 
Q 1688 2584 1439 2293 
Q 1191 2003 1191 1497 
Q 1191 994 1439 701 
Q 1688 409 2113 409 
Q 2538 409 2786 701 
Q 3034 994 3034 1497 
Q 3034 2003 2786 2293 
Q 2538 2584 2113 2584 
z
M 3366 4563 
L 3366 3988 
Q 3128 4100 2886 4159 
Q 2644 4219 2406 4219 
Q 1781 4219 1451 3797 
Q 1122 3375 1075 2522 
Q 1259 2794 1537 2939 
Q 1816 3084 2150 3084 
Q 2853 3084 3261 2657 
Q 3669 2231 3669 1497 
Q 3669 778 3244 343 
Q 2819 -91 2113 -91 
Q 1303 -91 875 529 
Q 447 1150 447 2328 
Q 447 3434 972 4092 
Q 1497 4750 2381 4750 
Q 2619 4750 2861 4703 
Q 3103 4656 3366 4563 
z
" transform="scale(0.015625)"/>
     </defs>
     <use xlink:href="#DejaVuSans-50"/>
     <use xlink:href="#DejaVuSans-36" transform="translate(60.302734 0)"/>
    </g>
   </g>
   <g id="text_3">
    <!-- FPZ -->
    <g transform="translate(130.891121 68.006562) scale(0.055 -0.055)">
     <defs>
      <path id="DejaVuSans-46" d="M 628 4666 
L 3309 4666 
L 3309 4134 
L 1259 4134 
L 1259 2759 
L 3109 2759 
L 3109 2228 
L 1259 2228 
L 1259 0 
L 628 0 
L 628 4666 
z
" transform="scale(0.015625)"/>
      <path id="DejaVuSans-5a" d="M 359 4666 
L 4025 4666 
L 4025 4184 
L 1075 531 
L 4097 531 
L 4097 0 
L 288 0 
L 288 481 
L 3238 4134 
L 359 4134 
L 359 4666 
z
" transform="scale(0.015625)"/>
     </defs>
     <use xlink:href="#DejaVuSans-46"/>
     <use xlink:href="#DejaVuSans-50" transform="translate(57.519531 0)"/>
     <use xlink:href="#DejaVuSans-5a" transform="translate(117.822266 0)"/>
    </g>
   </g>
   <g id="text_4">
    <!-- FP1 -->
    <g transform="translate(103.226883 72.079927) scale(0.055 -0.055)">
     <defs>
      <path id="DejaVuSans-31" d="M 794 531 
L 1825 531 
L 1825 4091 
L 703 3866 
L 703 4441 
L 1819 4666 
L 2450 4666 
L 2450 531 
L 3481 531 
L 3481 0 
L 794 0 
L 794 531 
z
" transform="scale(0.015625)"/>
     </defs>
     <use xlink:href="#DejaVuSans-46"/>
     <use xlink:href="#DejaVuSans-50" transform="translate(57.519531 0)"/>
     <use xlink:href="#DejaVuSans-31" transform="translate(117.822266 0)"/>
    </g>
   </g>
   <g id="text_5">
    <!-- FP2 -->
    <g transform="translate(159.021983 71.159118) scale(0.055 -0.055)">
     <defs>
      <path id="DejaVuSans-32" d="M 1228 531 
L 3431 531 
L 3431 0 
L 469 0 
L 469 531 
Q 828 903 1448 1529 
Q 2069 2156 2228 2338 
Q 2531 2678 2651 2914 
Q 2772 3150 2772 3378 
Q 2772 3750 2511 3984 
Q 2250 4219 1831 4219 
Q 1534 4219 1204 4116 
Q 875 4013 500 3803 
L 500 4441 
Q 881 4594 1212 4672 
Q 1544 4750 1819 4750 
Q 2544 4750 2975 4387 
Q 3406 4025 3406 3419 
Q 3406 3131 3298 2873 
Q 3191 2616 2906 2266 
Q 2828 2175 2409 1742 
Q 1991 1309 1228 531 
z
" transform="scale(0.015625)"/>
     </defs>
     <use xlink:href="#DejaVuSans-46"/>
     <use xlink:href="#DejaVuSans-50" transform="translate(57.519531 0)"/>
     <use xlink:href="#DejaVuSans-32" transform="translate(117.822266 0)"/>
    </g>
   </g>
   <g id="text_6">
    <!-- PO6 -->
    <g transform="translate(177.204373 244.579346) scale(0.055 -0.055)">
     <defs>
      <path id="DejaVuSans-4f" d="M 2522 4238 
Q 1834 4238 1429 3725 
Q 1025 3213 1025 2328 
Q 1025 1447 1429 934 
Q 1834 422 2522 422 
Q 3209 422 3611 934 
Q 4013 1447 4013 2328 
Q 4013 3213 3611 3725 
Q 3209 4238 2522 4238 
z
M 2522 4750 
Q 3503 4750 4090 4092 
Q 4678 3434 4678 2328 
Q 4678 1225 4090 567 
Q 3503 -91 2522 -91 
Q 1538 -91 948 565 
Q 359 1222 359 2328 
Q 359 3434 948 4092 
Q 1538 4750 2522 4750 
z
" transform="scale(0.015625)"/>
     </defs>
     <use xlink:href="#DejaVuSans-50"/>
     <use xlink:href="#DejaVuSans-4f" transform="translate(60.302734 0)"/>
     <use xlink:href="#DejaVuSans-36" transform="translate(139.013672 0)"/>
    </g>
   </g>
   <g id="text_7">
    <!-- PO4 -->
    <g transform="translate(164.93884 245.899222) scale(0.055 -0.055)">
     <defs>
      <path id="DejaVuSans-34" d="M 2419 4116 
L 825 1625 
L 2419 1625 
L 2419 4116 
z
M 2253 4666 
L 3047 4666 
L 3047 1625 
L 3713 1625 
L 3713 1100 
L 3047 1100 
L 3047 0 
L 2419 0 
L 2419 1100 
L 313 1100 
L 313 1709 
L 2253 4666 
z
" transform="scale(0.015625)"/>
     </defs>
     <use xlink:href="#DejaVuSans-50"/>
     <use xlink:href="#DejaVuSans-4f" transform="translate(60.302734 0)"/>
     <use xlink:href="#DejaVuSans-34" transform="translate(139.013672 0)"/>
    </g>
   </g>
   <g id="text_8">
    <!-- FC6 -->
    <g transform="translate(205.479345 132.2706) scale(0.055 -0.055)">
     <defs>
      <path id="DejaVuSans-43" d="M 4122 4306 
L 4122 3641 
Q 3803 3938 3442 4084 
Q 3081 4231 2675 4231 
Q 1875 4231 1450 3742 
Q 1025 3253 1025 2328 
Q 1025 1406 1450 917 
Q 1875 428 2675 428 
Q 3081 428 3442 575 
Q 3803 722 4122 1019 
L 4122 359 
Q 3791 134 3420 21 
Q 3050 -91 2638 -91 
Q 1578 -91 968 557 
Q 359 1206 359 2328 
Q 359 3453 968 4101 
Q 1578 4750 2638 4750 
Q 3056 4750 3426 4639 
Q 3797 4528 4122 4306 
z
" transform="scale(0.015625)"/>
     </defs>
     <use xlink:href="#DejaVuSans-46"/>
     <use xlink:href="#DejaVuSans-43" transform="translate(57.519531 0)"/>
     <use xlink:href="#DejaVuSans-36" transform="translate(127.34375 0)"/>
    </g>
   </g>
   <g id="text_9">
    <!-- FC4 -->
    <g transform="translate(189.259828 128.707875) scale(0.055 -0.055)">
     <use xlink:href="#DejaVuSans-46"/>
     <use xlink:href="#DejaVuSans-43" transform="translate(57.519531 0)"/>
     <use xlink:href="#DejaVuSans-34" transform="translate(127.34375 0)"/>
    </g>
   </g>
   <g id="line2d_11">
    <path d="M 59.919772 136.223796 
L 63.268946 131.968772 
" clip-path="url(#p7c3fca55d7)" style="fill: none; stroke: #a01a9c; stroke-opacity: 0.400493; stroke-width: 0.805318; stroke-linecap: square"/>
   </g>
   <g id="line2d_12">
    <path d="M 172.018731 193.79165 
L 165.937612 225.22596 
" clip-path="url(#p7c3fca55d7)" style="fill: none; stroke: #a21d9a; stroke-opacity: 0.407146; stroke-width: 0.830555; stroke-linecap: square"/>
   </g>
   <g id="line2d_13">
    <path d="M 194.511469 127.190219 
L 210.730985 130.752943 
" clip-path="url(#p7c3fca55d7)" style="fill: none; stroke: #a82296; stroke-opacity: 0.420862; stroke-width: 0.88258; stroke-linecap: square"/>
   </g>
   <g id="line2d_14">
    <path d="M 214.294274 192.877427 
L 199.774603 220.914679 
" clip-path="url(#p7c3fca55d7)" style="fill: none; stroke: #a82296; stroke-opacity: 0.422464; stroke-width: 0.888656; stroke-linecap: square"/>
   </g>
   <g id="line2d_15">
    <path d="M 210.730985 130.752943 
L 204.636413 218.246704 
" clip-path="url(#p7c3fca55d7)" style="fill: none; stroke: #b32c8e; stroke-opacity: 0.450871; stroke-width: 0.996408; stroke-linecap: square"/>
   </g>
   <g id="line2d_16">
    <path d="M 204.62456 107.717674 
L 210.730985 130.752943 
" clip-path="url(#p7c3fca55d7)" style="fill: none; stroke: #b52f8c; stroke-opacity: 0.458908; stroke-width: 1.026894; stroke-linecap: square"/>
   </g>
   <g id="line2d_17">
    <path d="M 86.04231 223.627339 
L 90.353685 242.962629 
" clip-path="url(#p7c3fca55d7)" style="fill: none; stroke: #b83289; stroke-opacity: 0.466163; stroke-width: 1.054411; stroke-linecap: square"/>
   </g>
   <g id="line2d_18">
    <path d="M 108.216415 70.562271 
L 136.014715 66.488906 
" clip-path="url(#p7c3fca55d7)" style="fill: none; stroke: #be3885; stroke-opacity: 0.484141; stroke-width: 1.122603; stroke-linecap: square"/>
   </g>
   <g id="line2d_19">
    <path d="M 110.042322 95.949422 
L 103.865246 125.037495 
" clip-path="url(#p7c3fca55d7)" style="fill: none; stroke: #c5407e; stroke-opacity: 0.507376; stroke-width: 1.210736; stroke-linecap: square"/>
   </g>
   <g id="line2d_20">
    <path d="M 199.774603 220.914679 
L 182.77699 243.06169 
" clip-path="url(#p7c3fca55d7)" style="fill: none; stroke: #cc4778; stroke-opacity: 0.52795; stroke-width: 1.288775; stroke-linecap: square"/>
   </g>
   <g id="line2d_21">
    <path d="M 170.511457 244.381566 
L 188.277571 241.348579 
" clip-path="url(#p7c3fca55d7)" style="fill: none; stroke: #cc4778; stroke-opacity: 0.530281; stroke-width: 1.297617; stroke-linecap: square"/>
   </g>
   <g id="line2d_22">
    <path d="M 136.014715 66.488906 
L 164.011515 69.641462 
" clip-path="url(#p7c3fca55d7)" style="fill: none; stroke: #d5536f; stroke-opacity: 0.561554; stroke-width: 1.41624; stroke-linecap: square"/>
   </g>
   <g id="line2d_23">
    <path d="M 194.511469 127.190219 
L 199.050412 159.761992 
" clip-path="url(#p7c3fca55d7)" style="fill: none; stroke: #db5c68; stroke-opacity: 0.58622; stroke-width: 1.5098; stroke-linecap: square"/>
   </g>
   <g id="line2d_24">
    <path d="M 108.216415 70.562271 
L 164.011515 69.641462 
" clip-path="url(#p7c3fca55d7)" style="fill: none; stroke: #f7e425; stroke-opacity: 0.9; stroke-width: 2.7; stroke-linecap: square"/>
   </g>
  </g>
 </g>
 <defs>
  <clipPath id="p7c3fca55d7">
   <rect x="7.2" y="20.798437" width="257.418137" height="254.001082"/>
  </clipPath>
 </defs>
</svg>
